{"glyphs":{"0":{"ha":791,"x_min":60,"x_max":731,"o":"m 60 509 q 395 1017 60 1017 q 731 509 731 1017 q 395 0 731 0 q 60 509 60 0 m 629 509 q 395 916 629 916 q 161 509 161 916 q 395 102 161 102 q 629 509 629 102 z "},"1":{"ha":646,"x_min":153,"x_max":533,"o":"m 292 795 l 153 795 l 153 859 q 317 1017 297 859 l 394 1017 l 394 102 l 533 102 l 533 0 l 153 0 l 153 102 l 292 102 l 292 795 z "},"2":{"ha":766,"x_min":74,"x_max":705,"o":"m 412 489 q 603 714 603 572 q 389 916 603 916 q 176 714 176 916 l 74 714 q 389 1017 74 1017 q 705 714 705 1017 q 446 391 705 503 l 316 335 q 176 102 176 277 l 705 102 l 705 0 l 74 0 l 74 102 q 282 433 74 345 l 412 489 z "},"3":{"ha":775,"x_min":66,"x_max":696,"o":"m 381 584 q 574 750 574 584 q 381 916 574 916 q 188 750 188 916 l 86 750 q 381 1017 86 1017 q 676 751 676 1017 q 584 536 676 602 q 696 292 696 467 q 381 0 696 0 q 66 294 66 0 l 168 294 q 381 102 168 102 q 595 294 595 102 q 381 485 595 485 l 328 485 l 328 584 l 381 584 z "},"4":{"ha":740,"x_min":27,"x_max":705,"o":"m 473 835 l 150 352 l 473 352 l 473 835 m 473 1017 l 575 1017 l 575 352 l 705 352 l 705 250 l 575 250 l 575 0 l 473 0 l 473 250 l 27 250 l 27 352 l 473 1017 z "},"5":{"ha":777,"x_min":84,"x_max":705,"o":"m 705 339 q 408 0 705 0 q 84 269 118 0 l 186 269 q 408 102 220 102 q 603 339 603 102 q 415 576 603 576 q 220 490 278 576 l 121 490 l 169 1017 l 657 1017 l 657 916 l 260 916 l 235 644 q 415 678 308 678 q 705 339 705 678 z "},"6":{"ha":734,"x_min":58,"x_max":688,"o":"m 165 389 q 373 102 194 102 q 587 322 587 102 q 373 543 587 543 q 165 389 195 543 m 373 0 q 58 509 58 0 q 407 1017 58 1017 q 688 779 688 1017 l 587 779 q 407 916 587 916 q 162 586 184 916 q 373 644 239 644 q 688 322 688 644 q 373 0 688 0 z "},"7":{"ha":748,"x_min":67,"x_max":698,"o":"m 698 916 l 336 0 l 227 0 l 589 916 l 67 916 l 67 1017 l 698 1017 l 698 916 z "},"8":{"ha":731,"x_min":50,"x_max":681,"o":"m 366 916 q 172 746 172 916 q 366 576 172 576 q 559 746 559 576 q 366 916 559 916 m 366 475 q 152 288 152 475 q 366 102 152 102 q 579 288 579 102 q 366 475 579 475 m 161 529 q 71 746 71 595 q 366 1017 71 1017 q 661 746 661 1017 q 570 529 661 595 q 681 288 681 459 q 366 0 681 0 q 50 288 50 0 q 161 529 50 459 z "},"9":{"ha":734,"x_min":45,"x_max":676,"o":"m 569 629 q 361 916 540 916 q 147 695 147 916 q 361 475 147 475 q 569 629 539 475 m 361 1017 q 676 509 676 1017 q 327 0 676 0 q 45 239 45 0 l 147 239 q 327 102 147 102 q 572 431 549 102 q 361 373 495 373 q 45 695 45 373 q 361 1017 45 1017 z "}," ":{"ha":386,"x_min":0,"x_max":0,"o":""},"!":{"ha":591,"x_min":305,"x_max":422,"o":"m 415 1013 l 415 543 l 388 233 l 340 233 l 313 543 l 313 1013 l 415 1013 m 422 144 l 422 0 l 305 0 l 305 144 l 422 144 z "},"\"":{"ha":493,"x_min":72,"x_max":423,"o":"m 72 985 l 201 985 l 201 831 l 163 644 l 109 644 l 72 831 l 72 985 m 294 985 l 423 985 l 423 831 l 386 644 l 332 644 l 294 831 l 294 985 z "},"#":{"ha":772,"x_min":19,"x_max":752,"o":"m 673 968 l 623 696 l 752 696 l 752 602 l 605 602 l 562 359 l 708 359 l 708 265 l 545 265 l 491 -27 l 386 -27 l 438 265 l 267 265 l 212 -27 l 106 -27 l 159 265 l 19 265 l 19 359 l 177 359 l 220 602 l 71 602 l 71 696 l 239 696 l 288 968 l 394 968 l 344 696 l 517 696 l 566 968 l 673 968 m 500 602 l 328 602 l 283 359 l 456 359 l 500 602 z "},"$":{"ha":772,"x_min":47,"x_max":722,"o":"m 340 1069 l 422 1069 l 422 994 q 662 852 597 982 q 691 734 688 800 l 691 721 l 582 721 q 501 875 581 828 q 440 896 473 890 q 422 897 431 897 l 422 551 q 604 485 561 509 q 722 271 722 418 q 627 41 722 126 q 594 17 612 28 q 422 -32 526 -23 l 422 -175 l 340 -175 l 340 -32 q 66 144 126 -18 q 47 264 47 199 q 48 289 47 277 l 158 289 q 187 153 168 186 q 193 143 190 149 q 340 64 241 77 l 340 441 q 165 514 211 481 q 66 717 66 585 q 260 978 66 920 q 340 994 297 989 l 340 1069 m 340 562 l 340 896 q 183 772 207 878 q 179 730 179 753 q 340 562 179 606 m 422 429 l 422 64 q 549 115 507 74 q 608 254 608 171 q 543 380 608 339 q 422 429 503 406 z "},"%":{"ha":1234,"x_min":40,"x_max":1193,"o":"m 276 951 q 464 860 393 951 l 489 821 q 513 711 513 770 q 426 530 513 602 q 277 476 361 476 q 93 564 165 476 q 40 714 40 631 q 127 899 40 827 q 276 951 193 951 m 276 854 q 159 790 201 854 l 143 758 q 136 714 136 736 q 198 597 136 640 q 277 574 235 574 q 394 636 353 574 q 418 713 418 671 q 351 833 418 791 q 276 854 318 854 m 846 985 l 937 985 l 389 -27 l 297 -27 l 846 985 m 956 447 q 1144 355 1074 447 q 1193 208 1193 292 q 1105 28 1193 98 q 957 -26 1040 -26 q 772 61 844 -26 q 719 211 719 127 q 808 395 719 323 q 956 447 873 447 m 956 350 q 839 288 880 350 q 815 211 815 253 q 880 93 815 135 q 957 71 915 71 q 1074 134 1031 71 q 1097 208 1097 168 q 1030 329 1097 288 l 998 343 q 956 350 977 350 z "},"&":{"ha":926,"x_min":72,"x_max":884,"o":"m 684 464 l 795 464 q 715 210 795 334 l 884 0 l 733 0 l 647 109 q 540 18 579 41 q 357 -32 462 -32 q 118 82 195 -32 q 72 244 72 150 q 144 431 72 357 q 297 541 194 481 q 187 729 199 663 q 184 766 184 747 q 275 939 184 873 q 422 985 338 985 q 611 893 547 985 l 631 854 q 647 791 644 825 q 648 766 648 779 q 572 603 648 671 q 456 525 532 567 l 642 298 q 684 458 684 374 l 684 464 m 395 599 q 529 721 508 669 q 538 770 538 742 q 476 873 538 842 q 418 888 450 888 q 307 818 334 888 q 298 768 298 796 q 333 673 298 722 l 395 599 m 581 191 l 358 468 q 199 315 227 385 q 189 254 189 288 q 264 111 189 164 q 370 77 312 77 q 558 167 464 77 q 581 191 569 178 z "},"'":{"ha":265,"x_min":66,"x_max":197,"o":"m 66 985 l 197 985 l 197 831 l 159 644 l 104 644 l 66 831 l 66 985 z "},"(":{"ha":777,"x_min":170,"x_max":472,"o":"m 396 1013 l 472 1013 q 283 416 300 734 q 282 359 282 387 q 452 -259 282 36 q 472 -294 461 -277 l 396 -294 q 188 178 239 -89 q 170 359 170 272 q 298 857 170 608 q 396 1013 342 942 z "},")":{"ha":777,"x_min":305,"x_max":608,"o":"m 382 -294 l 305 -294 q 494 301 477 -16 q 496 358 496 330 q 326 978 496 682 q 305 1013 316 996 l 382 1013 q 590 541 538 807 q 608 358 608 446 q 479 -138 608 110 q 382 -294 436 -223 z "},"*":{"ha":896,"x_min":305,"x_max":726,"o":"m 472 1013 l 559 1013 l 553 857 l 700 909 l 726 828 l 576 786 l 673 663 l 602 612 l 516 742 l 429 612 l 359 663 l 455 786 l 305 828 l 332 909 l 479 857 l 472 1013 z "},"+":{"ha":811,"x_min":69,"x_max":741,"o":"m 741 371 l 741 273 l 454 273 l 454 -14 l 357 -14 l 357 273 l 69 273 l 69 371 l 357 371 l 357 659 l 454 659 l 454 371 l 741 371 z "},",":{"ha":386,"x_min":121,"x_max":267,"o":"m 121 144 l 267 144 l 267 -22 q 121 -204 267 -204 l 121 -151 q 195 -105 180 -149 q 204 -24 204 -79 l 204 0 l 121 0 l 121 144 z "},"-":{"ha":462,"x_min":64,"x_max":394,"o":"m 394 433 l 394 334 l 64 334 l 64 433 l 394 433 z "},".":{"ha":386,"x_min":121,"x_max":265,"o":"m 265 144 l 265 0 l 121 0 l 121 144 l 265 144 z "},"/":{"ha":386,"x_min":-11,"x_max":395,"o":"m 318 1013 l 395 1013 l 66 -27 l -11 -27 l 318 1013 z "},":":{"ha":386,"x_min":153,"x_max":297,"o":"m 297 144 l 297 0 l 153 0 l 153 144 l 297 144 m 297 728 l 297 583 l 153 583 l 153 728 l 297 728 z "},";":{"ha":386,"x_min":153,"x_max":298,"o":"m 298 728 l 298 583 l 154 583 l 154 728 l 298 728 m 153 144 l 298 144 l 298 -22 q 153 -204 298 -204 l 153 -151 q 227 -105 212 -149 q 236 -24 236 -79 l 236 0 l 153 0 l 153 144 z "},"<":{"ha":811,"x_min":62,"x_max":741,"o":"m 62 275 l 62 371 l 741 659 l 741 549 l 195 325 l 741 97 l 741 -12 l 62 275 z "},"=":{"ha":811,"x_min":69,"x_max":741,"o":"m 741 490 l 741 393 l 69 393 l 69 490 l 741 490 m 741 252 l 741 154 l 69 154 l 69 252 l 741 252 z "},">":{"ha":811,"x_min":69,"x_max":748,"o":"m 748 371 l 748 275 l 69 -12 l 69 97 l 616 321 l 69 549 l 69 659 l 748 371 z "},"?":{"ha":1075,"x_min":305,"x_max":905,"o":"m 656 277 l 532 277 l 532 353 q 570 473 532 422 q 643 550 594 504 q 676 579 652 558 q 780 762 779 671 q 695 901 780 860 l 652 916 q 602 921 629 921 q 447 840 488 921 q 423 704 423 793 l 305 704 q 368 931 305 850 q 555 1026 431 1012 q 610 1029 582 1029 q 862 914 785 1029 l 884 872 q 905 762 905 822 q 834 583 905 665 q 766 514 808 551 q 665 396 679 433 q 656 342 656 375 l 656 277 m 656 144 l 656 0 l 532 0 l 532 144 l 656 144 z "},"@":{"ha":1409,"x_min":47,"x_max":1320,"o":"m 923 696 l 1038 696 l 913 307 q 897 237 897 258 q 937 182 897 200 q 966 176 951 176 q 1128 277 1055 176 q 1200 496 1200 375 q 1065 786 1200 663 q 732 922 927 914 l 711 922 q 349 781 507 922 l 302 733 q 165 379 165 576 q 311 49 165 183 q 686 -90 460 -90 q 954 -45 795 -90 l 993 -138 q 679 -197 837 -197 q 247 -48 429 -197 q 51 294 77 90 q 47 358 47 326 q 179 753 47 572 q 267 850 218 807 q 626 1021 416 986 q 729 1029 677 1029 q 1130 889 960 1029 q 1316 571 1291 758 q 1320 513 1320 542 q 1201 203 1320 345 q 943 79 1095 79 q 790 186 809 79 q 593 86 699 86 q 414 182 479 86 q 366 340 366 250 q 476 608 366 492 q 723 725 583 724 q 892 604 840 725 l 923 696 m 715 636 q 554 538 623 636 q 491 339 491 450 q 557 199 491 245 q 629 175 590 175 q 770 265 709 175 q 838 449 817 332 q 846 503 844 479 l 846 512 q 789 616 846 581 q 715 636 755 636 z "},"ក":{"ha":949,"x_min":100,"x_max":853,"o":"m 100 868 q 234 977 189 936 q 299 1017 279 1017 q 358 994 319 1017 l 397 971 l 475 925 l 539 971 l 571 994 q 623 1017 603 1017 q 671 994 643 1017 l 701 970 q 853 882 758 922 q 766 816 806 816 q 747 820 756 816 q 618 907 698 840 l 475 808 l 309 909 l 227 847 l 254 793 l 193 753 l 100 831 l 100 868 m 780 129 q 712 0 780 41 l 610 0 q 678 129 678 47 l 678 548 l 450 683 l 247 560 q 271 515 271 541 l 271 0 l 170 0 l 170 515 q 119 575 170 562 q 160 627 119 601 l 450 787 l 739 627 q 780 548 780 601 l 780 129 z "},"ខ":{"ha":916,"x_min":170,"x_max":746,"o":"m 170 780 q 254 956 170 895 q 458 1017 339 1017 q 661 960 576 1017 q 746 746 746 902 q 597 435 746 565 l 547 391 l 349 218 l 460 117 l 746 439 q 621 146 746 292 l 557 73 l 526 37 q 466 0 494 0 q 377 55 437 0 l 317 110 l 256 165 q 225 220 225 193 q 252 269 225 245 l 532 514 q 644 746 644 612 q 458 916 644 916 q 271 780 271 916 q 312 712 271 712 q 359 753 312 746 q 371 754 365 754 q 423 713 408 754 q 429 687 429 699 q 400 642 429 659 q 312 617 359 617 q 170 780 170 617 z "},"គ":{"ha":949,"x_min":100,"x_max":853,"o":"m 678 548 l 475 683 l 271 548 l 271 256 q 420 339 336 339 q 509 254 509 339 q 434 170 509 170 q 387 237 434 237 q 305 153 338 237 l 271 68 l 271 0 l 170 0 l 170 548 q 208 627 170 601 l 475 787 l 742 627 q 780 548 780 601 l 780 129 q 712 0 780 41 l 610 0 q 678 129 678 47 l 678 548 m 100 868 q 234 977 189 936 q 299 1017 279 1017 q 358 994 319 1017 l 397 971 l 475 925 l 539 971 l 571 994 q 623 1017 603 1017 q 671 994 643 1017 l 701 970 q 853 882 758 922 q 766 816 806 816 q 747 820 756 816 q 618 907 698 840 l 475 808 l 309 909 l 227 847 l 254 793 l 193 753 l 100 831 l 100 868 z "},"ឃ":{"ha":1390,"x_min":68,"x_max":1322,"o":"m 1119 662 q 983 747 1119 734 q 1123 1017 1086 886 l 1196 968 q 1284 936 1244 936 q 1322 945 1304 936 q 1280 842 1322 854 q 1258 838 1270 838 q 1167 871 1221 838 l 1130 794 q 1221 662 1221 754 l 1221 170 q 1051 0 1221 0 l 814 0 q 695 35 737 0 q 576 0 653 0 l 339 0 q 170 170 170 0 l 170 692 l 136 692 q 68 800 68 692 q 203 1017 68 1017 q 271 949 271 1017 l 271 170 q 339 102 271 102 l 576 102 q 644 170 644 102 l 644 662 q 509 747 644 734 q 648 1017 612 886 l 721 968 q 809 936 769 936 q 848 945 829 936 q 806 842 848 854 q 783 838 795 838 q 692 871 746 838 l 655 794 q 746 662 746 754 l 746 170 q 814 102 746 102 l 1051 102 q 1119 170 1119 102 l 1119 662 z "},"ង":{"ha":949,"x_min":102,"x_max":780,"o":"m 624 895 q 590 936 624 936 q 543 895 543 936 q 583 842 543 872 q 624 895 624 863 m 678 610 q 650 706 678 684 q 595 739 620 722 q 407 678 499 678 q 230 725 286 678 q 170 868 170 776 q 203 985 170 926 q 237 1085 237 1044 q 136 1153 237 1153 q 203 1221 136 1221 q 339 1085 339 1221 q 305 978 339 1041 q 271 868 271 916 q 309 804 271 828 q 407 780 346 780 q 515 802 477 780 q 461 895 461 844 q 590 1017 461 1017 q 712 895 712 1017 q 666 795 712 843 q 695 780 680 787 q 780 610 780 734 l 780 68 q 729 0 780 0 q 626 51 678 0 l 475 199 l 323 51 q 220 0 271 0 q 170 68 170 0 l 170 407 q 102 502 102 407 q 203 610 102 610 q 271 543 271 610 l 271 139 l 475 338 l 678 139 l 678 610 z "},"ច":{"ha":949,"x_min":100,"x_max":853,"o":"m 170 536 q 122 610 122 536 q 231 739 122 739 q 271 671 271 739 l 271 170 q 339 102 271 102 l 610 102 q 678 170 678 102 l 678 739 l 780 739 l 780 170 q 610 0 780 0 l 339 0 q 170 170 170 0 l 170 536 m 100 868 q 234 977 189 936 q 299 1017 279 1017 q 358 994 319 1017 l 397 971 l 475 925 l 539 971 l 571 994 q 623 1017 603 1017 q 671 994 643 1017 l 701 970 q 853 882 758 922 q 766 816 806 816 q 747 820 756 816 q 618 907 698 840 l 475 808 l 309 909 l 227 847 l 254 793 l 193 753 l 100 831 l 100 868 z "},"ឆ":{"ha":949,"x_min":100,"x_max":853,"o":"m 678 475 l 678 576 q 631 534 651 576 q 610 461 610 492 q 644 434 610 434 q 678 475 678 434 m 780 170 q 610 0 780 0 l 543 0 q 373 170 373 0 q 322 237 373 237 q 271 68 271 237 l 271 0 l 170 0 l 170 536 q 122 610 122 536 q 231 739 122 739 q 271 671 271 739 l 271 330 q 322 339 294 339 q 475 170 475 339 q 543 102 475 102 l 610 102 q 678 170 678 102 l 678 342 q 644 339 663 339 q 509 461 509 339 q 562 605 509 532 q 678 678 616 678 q 780 576 780 678 l 780 170 m 100 868 q 234 977 189 936 q 299 1017 279 1017 q 358 994 319 1017 l 397 971 l 475 925 l 539 971 l 571 994 q 623 1017 603 1017 q 671 994 643 1017 l 701 970 q 853 882 758 922 q 766 816 806 816 q 747 820 756 816 q 618 907 698 840 l 475 808 l 309 909 l 227 847 l 254 793 l 193 753 l 100 831 l 100 868 z "},"ជ":{"ha":949,"x_min":102,"x_max":780,"o":"m 780 1042 q 515 814 780 814 q 333 878 426 814 l 278 916 l 203 863 q 271 790 203 840 l 170 765 q 102 838 102 800 l 102 874 q 146 928 102 899 l 191 958 q 288 1017 266 1017 q 387 966 304 1017 q 515 916 475 916 q 678 1042 678 916 q 481 1146 678 1146 q 576 1221 481 1221 q 780 1042 780 1221 m 678 610 q 610 739 678 692 l 712 739 q 780 610 780 699 l 780 68 q 729 0 780 0 q 626 51 678 0 l 475 199 l 323 51 q 220 0 271 0 q 170 68 170 0 l 170 536 q 122 610 122 536 q 231 739 122 739 q 271 671 271 739 l 271 139 l 475 338 l 678 139 l 678 610 z "},"ឈ":{"ha":1797,"x_min":170,"x_max":1729,"o":"m 271 203 l 271 102 q 319 144 298 102 q 339 217 339 186 q 305 244 339 244 q 271 203 271 244 m 1526 662 q 1390 747 1526 734 q 1530 1017 1493 886 l 1603 968 q 1691 936 1651 936 q 1729 945 1711 936 q 1687 842 1729 854 q 1665 838 1677 838 q 1574 871 1628 838 l 1537 794 q 1628 662 1628 754 l 1628 170 q 1458 0 1628 0 l 1255 0 q 1136 35 1178 0 q 1017 0 1094 0 l 814 0 q 644 170 644 0 l 644 789 l 458 912 l 271 789 l 271 336 q 305 339 287 339 q 441 217 441 339 q 387 73 441 146 q 271 0 334 0 q 170 102 170 0 l 170 789 q 208 868 170 842 l 458 1017 l 708 868 q 746 789 746 842 l 746 170 q 814 102 746 102 l 1017 102 q 1085 170 1085 102 l 1085 662 q 949 747 1085 734 q 1089 1017 1053 886 l 1162 968 q 1250 936 1210 936 q 1289 945 1270 936 q 1246 842 1289 854 q 1224 838 1236 838 q 1133 871 1187 838 l 1096 794 q 1187 662 1187 754 l 1187 170 q 1255 102 1187 102 l 1458 102 q 1526 170 1526 102 l 1526 662 z "},"ញ":{"ha":1390,"x_min":170,"x_max":1221,"o":"m 271 203 l 271 102 q 319 144 298 102 q 339 217 339 186 q 305 244 339 244 q 271 203 271 244 m 780 129 q 712 0 780 41 l 610 0 q 678 129 678 47 l 678 782 l 596 871 l 474 760 l 352 871 l 271 782 l 271 336 q 305 339 287 339 q 441 217 441 339 q 387 73 441 146 q 271 0 334 0 q 170 102 170 0 l 170 770 q 214 871 170 821 l 345 1017 l 474 897 l 603 1017 l 734 871 q 751 850 744 861 l 926 1017 l 1166 866 q 1221 770 1221 831 l 1221 129 q 1153 0 1221 41 l 1051 0 q 1119 129 1119 47 l 1119 772 l 937 886 l 780 734 l 780 129 m 1068 -257 q 1119 -180 1119 -228 q 1075 -144 1119 -144 q 1033 -106 1033 -144 q 1075 -68 1033 -68 q 1221 -180 1221 -68 q 1143 -330 1221 -275 q 772 -407 1034 -407 q 437 -340 583 -407 q 197 -153 297 -277 q 170 -96 170 -124 q 205 -68 170 -68 q 260 -96 239 -68 q 486 -252 358 -199 q 772 -305 614 -305 q 1068 -257 987 -305 z "},"ដ":{"ha":949,"x_min":122,"x_max":780,"o":"m 122 963 q 210 1044 122 1044 q 298 963 298 1044 q 244 897 298 903 q 399 848 285 848 q 675 1010 675 848 q 435 1153 675 1133 q 524 1221 435 1221 q 780 1010 780 1221 q 399 746 780 746 q 193 800 264 746 q 122 963 122 854 m 678 610 q 610 739 678 692 l 712 739 q 780 610 780 699 l 780 68 q 729 0 780 0 q 626 51 678 0 l 475 199 l 323 51 q 220 0 271 0 q 170 68 170 0 l 170 536 q 122 610 122 536 q 231 739 122 739 q 271 671 271 739 l 271 139 l 475 338 l 678 139 l 678 610 z "},"ឋ":{"ha":949,"x_min":68,"x_max":882,"o":"m 170 692 l 136 692 q 68 800 68 692 q 203 1017 68 1017 q 271 949 271 1017 l 271 170 q 339 102 271 102 l 610 102 q 678 170 678 102 l 678 662 q 543 747 678 734 q 655 1017 632 886 l 741 968 q 758 963 750 963 q 780 1017 780 963 q 746 1113 780 1078 q 618 1147 713 1147 q 715 1221 660 1221 q 826 1176 771 1221 q 882 1017 882 1132 q 833 859 882 888 q 787 846 812 846 q 706 871 751 846 l 682 794 q 780 662 780 754 l 780 170 q 610 0 780 0 l 339 0 q 170 170 170 0 l 170 692 z "},"ឌ":{"ha":949,"x_min":170,"x_max":848,"o":"m 678 237 l 398 0 l 236 103 q 191 165 191 133 q 231 229 191 196 l 590 529 q 678 746 678 610 q 589 882 678 814 l 476 793 l 363 882 q 271 746 271 814 q 362 644 271 644 q 427 678 427 644 q 478 732 427 732 q 529 678 529 732 q 361 543 529 543 q 170 746 170 543 q 216 879 170 821 l 347 1017 l 475 909 l 605 1017 l 735 879 q 780 746 780 821 q 665 463 780 561 l 318 172 l 389 128 l 606 307 q 678 407 678 369 l 780 407 l 780 129 q 848 0 780 47 l 746 0 q 678 129 678 41 l 678 237 z "},"ឍ":{"ha":1424,"x_min":170,"x_max":1356,"o":"m 271 203 l 271 102 q 319 144 298 102 q 339 217 339 186 q 305 244 339 244 q 271 203 271 244 m 1255 170 q 1068 0 1255 0 q 882 170 882 0 q 831 237 882 237 q 780 68 780 237 l 780 0 l 678 0 l 678 782 l 596 871 l 474 760 l 352 871 l 271 782 l 271 336 q 305 339 287 339 q 441 217 441 339 q 387 73 441 146 q 271 0 334 0 q 170 102 170 0 l 170 770 q 214 871 170 821 l 345 1017 l 474 897 l 603 1017 l 734 871 q 780 770 780 821 l 780 330 q 831 339 803 339 q 983 170 983 339 q 1068 102 983 102 q 1153 170 1153 102 l 1153 662 q 1017 747 1153 734 q 1157 1017 1120 886 l 1230 968 q 1318 936 1278 936 q 1356 945 1338 936 q 1314 842 1356 854 q 1292 838 1304 838 q 1201 871 1255 838 l 1164 794 q 1255 662 1255 754 l 1255 170 z "},"ណ":{"ha":1865,"x_min":170,"x_max":1695,"o":"m 271 203 l 271 102 q 319 144 298 102 q 339 217 339 186 q 305 244 339 244 q 271 203 271 244 m 1221 68 q 1170 0 1221 0 q 1067 51 1119 0 l 932 182 l 798 51 q 695 0 746 0 q 644 68 644 0 l 644 789 l 458 912 l 271 789 l 271 336 q 305 339 287 339 q 441 217 441 339 q 387 73 441 146 q 271 0 334 0 q 170 102 170 0 l 170 789 q 208 868 170 842 l 458 1017 l 708 868 q 746 789 746 842 l 746 139 l 932 321 l 1119 139 l 1119 755 q 1068 815 1119 802 q 1109 867 1068 841 l 1382 1017 l 1654 867 q 1695 788 1695 841 l 1695 129 q 1628 0 1695 41 l 1526 0 q 1594 129 1594 47 l 1594 788 l 1382 913 l 1196 800 q 1221 755 1221 781 l 1221 68 z "},"ត":{"ha":949,"x_min":100,"x_max":853,"o":"m 271 203 l 271 102 q 319 144 298 102 q 339 217 339 186 q 305 244 339 244 q 271 203 271 244 m 678 548 l 475 683 l 271 548 l 271 336 q 305 339 287 339 q 441 217 441 339 q 387 73 441 146 q 271 0 334 0 q 170 102 170 0 l 170 548 q 208 627 170 601 l 475 787 l 742 627 q 780 548 780 601 l 780 129 q 712 0 780 41 l 610 0 q 678 129 678 47 l 678 548 m 100 868 q 234 977 189 936 q 299 1017 279 1017 q 358 994 319 1017 l 397 971 l 475 925 l 539 971 l 571 994 q 623 1017 603 1017 q 671 994 643 1017 l 701 970 q 853 882 758 922 q 766 816 806 816 q 747 820 756 816 q 618 907 698 840 l 475 808 l 309 909 l 227 847 l 254 793 l 193 753 l 100 831 l 100 868 z "},"ថ":{"ha":949,"x_min":102,"x_max":780,"o":"m 170 536 q 122 610 122 536 q 231 739 122 739 q 271 671 271 739 l 271 170 q 339 102 271 102 l 610 102 q 678 170 678 102 l 678 610 q 610 739 678 692 l 712 739 q 780 610 780 699 l 780 170 q 610 0 780 0 l 339 0 q 170 170 170 0 l 170 536 m 780 1042 q 515 814 780 814 q 333 878 426 814 l 278 916 l 203 863 q 271 790 203 840 l 170 765 q 102 838 102 800 l 102 874 q 146 928 102 899 l 191 958 q 288 1017 266 1017 q 387 966 304 1017 q 515 916 475 916 q 678 1042 678 916 q 481 1146 678 1146 q 576 1221 481 1221 q 780 1042 780 1221 z "},"ទ":{"ha":949,"x_min":170,"x_max":780,"o":"m 780 583 q 610 433 780 457 l 610 203 q 451 0 610 0 q 292 203 292 0 q 423 366 292 366 q 461 315 461 366 q 423 264 461 264 q 393 203 393 264 q 451 102 393 102 q 509 203 509 102 l 509 427 q 170 705 170 427 q 565 1017 170 1017 q 780 861 780 1017 q 742 793 780 793 q 662 817 677 793 q 656 832 656 825 q 678 861 656 848 q 565 916 678 916 q 271 705 271 916 q 509 529 271 529 q 645 712 509 712 q 780 583 780 712 m 645 610 q 610 536 610 610 q 678 583 678 556 q 645 610 678 610 z "},"ធ":{"ha":949,"x_min":100,"x_max":853,"o":"m 678 536 q 610 631 610 536 q 712 739 610 739 q 780 671 780 739 l 780 68 q 729 0 780 0 q 626 51 678 0 l 475 199 l 323 51 q 220 0 271 0 q 170 68 170 0 l 170 536 q 122 610 122 536 q 231 739 122 739 q 271 671 271 739 l 271 139 l 475 338 l 678 139 l 678 536 m 100 868 q 234 977 189 936 q 299 1017 279 1017 q 358 994 319 1017 l 397 971 l 475 925 l 539 971 l 571 994 q 623 1017 603 1017 q 671 994 643 1017 l 701 970 q 853 882 758 922 q 766 816 806 816 q 747 820 756 816 q 618 907 698 840 l 475 808 l 309 909 l 227 847 l 254 793 l 193 753 l 100 831 l 100 868 z "},"ន":{"ha":949,"x_min":170,"x_max":780,"o":"m 780 136 q 627 0 780 0 q 421 117 460 0 q 349 183 399 183 q 271 19 271 183 l 271 0 l 170 0 l 170 434 l 271 434 l 271 248 q 349 285 292 285 q 505 151 467 285 q 627 88 528 88 q 678 136 678 88 l 678 441 q 627 509 678 509 q 408 457 551 509 q 313 438 355 438 q 229 467 262 438 q 170 678 170 519 q 349 929 170 841 q 627 1017 528 1017 q 780 888 780 1017 q 678 753 780 753 q 604 802 604 753 q 604 807 604 804 q 639 858 608 858 l 649 858 q 678 888 678 858 q 627 916 678 916 q 407 841 543 916 q 271 678 271 766 q 332 545 271 545 q 360 551 345 545 q 627 610 551 610 q 780 441 780 610 l 780 136 z "},"ប":{"ha":949,"x_min":34,"x_max":882,"o":"m 170 662 q 34 747 170 734 q 174 1017 137 886 l 246 968 q 334 936 294 936 q 373 945 355 936 q 331 842 373 854 q 309 838 321 838 q 218 871 271 838 l 180 794 q 271 662 271 754 l 271 170 q 339 102 271 102 l 610 102 q 678 170 678 102 l 678 662 q 543 747 678 734 q 682 1017 646 886 l 755 968 q 843 936 803 936 q 882 945 863 936 q 840 842 882 854 q 817 838 829 838 q 726 871 780 838 l 689 794 q 780 662 780 754 l 780 170 q 610 0 780 0 l 339 0 q 170 170 170 0 l 170 662 z "},"ផ":{"ha":949,"x_min":102,"x_max":780,"o":"m 678 536 l 678 637 q 631 595 651 637 q 610 522 610 553 q 644 495 610 495 q 678 536 678 495 m 780 68 q 729 0 780 0 q 626 51 678 0 l 475 199 l 323 51 q 220 0 271 0 q 170 68 170 0 l 170 536 q 122 610 122 536 q 231 739 122 739 q 271 671 271 739 l 271 139 l 475 338 l 678 139 l 678 403 q 644 400 663 400 q 509 522 509 400 q 562 666 509 593 q 678 739 616 739 q 780 637 780 739 l 780 68 m 780 1042 q 515 814 780 814 q 333 878 426 814 l 278 916 l 203 863 q 271 790 203 840 l 170 765 q 102 838 102 800 l 102 874 q 146 928 102 899 l 191 958 q 288 1017 266 1017 q 387 966 304 1017 q 515 916 475 916 q 678 1042 678 916 q 481 1146 678 1146 q 576 1221 481 1221 q 780 1042 780 1221 z "},"ព":{"ha":949,"x_min":170,"x_max":780,"o":"m 271 203 l 271 102 q 319 144 298 102 q 339 217 339 186 q 305 244 339 244 q 271 203 271 244 m 780 129 q 712 0 780 41 l 610 0 q 678 129 678 47 l 678 782 l 596 871 l 474 760 l 352 871 l 271 782 l 271 336 q 305 339 287 339 q 441 217 441 339 q 387 73 441 146 q 271 0 334 0 q 170 102 170 0 l 170 770 q 214 871 170 821 l 345 1017 l 474 897 l 603 1017 l 734 871 q 780 770 780 821 l 780 129 z "},"ភ":{"ha":949,"x_min":68,"x_max":853,"o":"m 170 515 q 119 575 170 562 q 160 627 119 601 l 450 787 l 739 627 q 780 548 780 601 l 780 129 q 712 0 780 41 l 610 0 q 678 129 678 47 l 678 548 l 450 683 l 247 560 q 271 515 271 541 l 271 68 q 203 0 271 0 q 112 78 156 0 q 68 231 68 156 q 136 326 68 326 l 170 326 l 170 515 m 100 868 q 234 977 189 936 q 299 1017 279 1017 q 358 994 319 1017 l 397 971 l 475 925 l 539 971 l 571 994 q 623 1017 603 1017 q 671 994 643 1017 l 701 970 q 853 882 758 922 q 766 816 806 816 q 747 820 756 816 q 618 907 698 840 l 475 808 l 309 909 l 227 847 l 254 793 l 193 753 l 100 831 l 100 868 z "},"ម":{"ha":949,"x_min":34,"x_max":882,"o":"m 271 522 l 678 522 l 678 662 q 543 747 678 734 q 682 1017 646 886 l 755 968 q 843 936 803 936 q 882 945 863 936 q 840 842 882 854 q 817 838 829 838 q 726 871 780 838 l 689 794 q 780 662 780 754 l 780 170 q 610 0 780 0 l 339 0 q 170 170 170 0 l 170 662 q 34 747 170 734 q 174 1017 137 886 l 246 968 q 334 936 294 936 q 373 945 355 936 q 331 842 373 854 q 309 838 321 838 q 218 871 271 838 l 180 794 q 271 662 271 754 l 271 522 m 678 420 l 271 420 l 271 170 q 339 102 271 102 l 610 102 q 678 170 678 102 l 678 420 z "},"យ":{"ha":1390,"x_min":170,"x_max":1322,"o":"m 170 949 q 237 1017 170 1017 q 373 800 373 1017 q 305 692 373 692 l 271 692 l 271 170 q 339 102 271 102 l 576 102 q 644 170 644 102 l 644 662 q 509 747 644 734 q 648 1017 612 886 l 721 968 q 809 936 769 936 q 848 945 829 936 q 806 842 848 854 q 783 838 795 838 q 692 871 746 838 l 655 794 q 746 662 746 754 l 746 170 q 814 102 746 102 l 1051 102 q 1119 170 1119 102 l 1119 662 q 983 747 1119 734 q 1123 1017 1086 886 l 1196 968 q 1284 936 1244 936 q 1322 945 1304 936 q 1280 842 1322 854 q 1258 838 1270 838 q 1167 871 1221 838 l 1130 794 q 1221 662 1221 754 l 1221 170 q 1051 0 1221 0 l 814 0 q 695 35 737 0 q 576 0 653 0 l 339 0 q 170 170 170 0 l 170 949 z "},"រ":{"ha":441,"x_min":34,"x_max":373,"o":"m 271 68 q 203 0 271 0 q 112 78 156 0 q 68 231 68 156 q 136 326 68 326 l 170 326 l 170 662 q 34 747 170 734 q 174 1017 137 886 l 246 968 q 334 936 294 936 q 373 945 355 936 q 331 842 373 854 q 309 838 321 838 q 218 871 271 838 l 180 794 q 271 662 271 754 l 271 68 z "},"ល":{"ha":1356,"x_min":170,"x_max":1289,"o":"m 271 203 l 271 102 q 319 144 298 102 q 339 217 339 186 q 305 244 339 244 q 271 203 271 244 m 1187 170 q 1017 0 1187 0 l 814 0 q 644 170 644 0 l 644 789 l 458 912 l 271 789 l 271 336 q 305 339 287 339 q 441 217 441 339 q 387 73 441 146 q 271 0 334 0 q 170 102 170 0 l 170 789 q 208 868 170 842 l 458 1017 l 708 868 q 746 789 746 842 l 746 170 q 814 102 746 102 l 1017 102 q 1085 170 1085 102 l 1085 662 q 949 747 1085 734 q 1089 1017 1053 886 l 1162 968 q 1250 936 1210 936 q 1289 945 1270 936 q 1246 842 1289 854 q 1224 838 1236 838 q 1133 871 1187 838 l 1096 794 q 1187 662 1187 754 l 1187 170 z "},"វ":{"ha":441,"x_min":34,"x_max":373,"o":"m 373 1017 q 324 859 373 888 q 278 846 303 846 q 197 871 243 846 l 174 794 q 271 662 271 754 l 271 68 q 203 0 271 0 q 112 78 156 0 q 68 231 68 156 q 136 326 68 326 l 170 326 l 170 662 q 34 747 170 734 q 146 1017 123 886 l 233 968 q 249 963 241 963 q 271 1017 271 963 q 238 1113 271 1078 q 109 1147 204 1147 q 207 1221 151 1221 q 318 1176 262 1221 q 373 1017 373 1132 z "},"ឝ":{"ha":949,"x_min":100,"x_max":882,"o":"m 678 338 l 678 548 l 475 683 l 271 548 l 271 256 q 420 339 336 339 q 509 254 509 339 q 434 170 509 170 q 387 237 434 237 q 305 153 338 237 l 271 68 l 271 0 l 170 0 l 170 548 q 208 627 170 601 l 475 787 l 742 627 q 780 548 780 601 l 780 338 l 882 338 l 882 237 l 780 237 l 780 129 q 712 0 780 41 l 610 0 q 678 129 678 47 l 678 237 l 543 237 l 543 338 l 678 338 m 100 868 q 234 977 189 936 q 299 1017 279 1017 q 358 994 319 1017 l 397 971 l 475 925 l 539 971 l 571 994 q 623 1017 603 1017 q 671 994 643 1017 l 701 970 q 853 882 758 922 q 766 816 806 816 q 747 820 756 816 q 618 907 698 840 l 475 808 l 309 909 l 227 847 l 254 793 l 193 753 l 100 831 l 100 868 z "},"ឞ":{"ha":949,"x_min":34,"x_max":882,"o":"m 780 390 l 780 170 q 610 0 780 0 l 339 0 q 170 170 170 0 l 170 662 q 34 747 170 734 q 174 1017 137 886 l 246 968 q 334 936 294 936 q 373 945 355 936 q 331 842 373 854 q 309 838 321 838 q 218 871 271 838 l 180 794 q 271 662 271 754 l 271 170 q 339 102 271 102 l 610 102 q 678 170 678 102 l 678 390 l 543 390 l 543 492 l 678 492 l 678 662 q 543 747 678 734 q 682 1017 646 886 l 755 968 q 843 936 803 936 q 882 945 863 936 q 840 842 882 854 q 817 838 829 838 q 726 871 780 838 l 689 794 q 780 662 780 754 l 780 492 l 882 492 l 882 390 l 780 390 z "},"ស":{"ha":1356,"x_min":170,"x_max":1289,"o":"m 271 203 l 271 102 q 319 144 298 102 q 339 217 339 186 q 305 244 339 244 q 271 203 271 244 m 320 732 q 178 776 296 766 q 366 1046 317 914 l 463 997 q 581 964 528 964 q 634 973 609 964 q 578 870 634 883 q 553 867 566 867 q 405 913 498 867 l 348 823 q 406 783 386 806 l 458 814 l 708 665 q 746 585 746 638 l 746 170 q 814 102 746 102 l 1017 102 q 1085 170 1085 102 l 1085 662 q 949 747 1085 734 q 1089 1017 1053 886 l 1162 968 q 1250 936 1210 936 q 1289 945 1270 936 q 1246 842 1289 854 q 1224 838 1236 838 q 1133 871 1187 838 l 1096 794 q 1187 662 1187 754 l 1187 170 q 1017 0 1187 0 l 814 0 q 644 170 644 0 l 644 585 l 458 709 l 271 585 l 271 336 q 305 339 287 339 q 441 217 441 339 q 387 73 441 146 q 271 0 334 0 q 170 102 170 0 l 170 585 q 208 665 170 638 l 320 732 z "},"ហ":{"ha":1390,"x_min":34,"x_max":1221,"o":"m 746 170 q 576 0 746 0 l 339 0 q 170 170 170 0 l 170 662 q 34 747 170 734 q 174 1017 137 886 l 246 968 q 334 936 294 936 q 373 945 355 936 q 331 842 373 854 q 309 838 321 838 q 218 871 271 838 l 180 794 q 271 662 271 754 l 271 170 q 339 102 271 102 l 576 102 q 644 170 644 102 l 644 755 q 593 815 644 802 q 635 867 593 841 l 907 1017 l 1179 867 q 1221 788 1221 841 l 1221 129 q 1153 0 1221 41 l 1051 0 q 1119 129 1119 47 l 1119 788 l 907 913 l 722 800 q 746 755 746 781 l 746 170 z "},"ឡ":{"ha":1390,"x_min":170,"x_max":1322,"o":"m 645 610 q 610 536 610 610 q 678 583 678 556 q 645 610 678 610 m 780 583 q 610 433 780 457 l 610 203 q 458 0 610 0 q 305 203 305 0 q 437 380 305 380 q 475 329 475 380 q 437 278 475 278 q 407 203 407 278 q 458 102 407 102 q 509 203 509 102 l 509 427 q 170 719 170 427 q 551 1017 170 1017 q 780 861 780 1017 q 742 793 780 793 q 662 817 677 793 q 656 832 656 825 q 678 861 656 848 q 551 916 678 916 q 271 719 271 916 q 509 529 271 529 q 645 712 509 712 q 780 583 780 712 m 1119 -302 l 1119 662 q 983 747 1119 734 q 1123 1017 1086 886 l 1196 968 q 1284 936 1244 936 q 1322 945 1304 936 q 1280 842 1322 854 q 1258 838 1270 838 q 1167 871 1221 838 l 1130 794 q 1221 662 1221 754 l 1221 -373 q 1170 -441 1221 -441 q 1067 -390 1119 -441 l 949 -275 l 832 -390 q 729 -441 780 -441 q 678 -373 678 -441 l 678 -203 q 610 -119 610 -203 q 702 -34 610 -34 q 780 -136 780 -34 l 780 -302 l 949 -136 l 1119 -302 z "},"អ":{"ha":949,"x_min":34,"x_max":882,"o":"m 678 556 l 678 662 q 543 747 678 734 q 682 1017 646 886 l 755 968 q 843 936 803 936 q 882 945 863 936 q 840 842 882 854 q 817 838 829 838 q 726 871 780 838 l 689 794 q 780 662 780 754 l 780 68 q 712 0 780 0 q 621 78 665 0 q 576 231 576 156 q 644 326 576 326 l 678 326 l 678 454 l 271 454 l 271 68 q 203 0 271 0 q 112 78 156 0 q 68 231 68 156 q 136 326 68 326 l 170 326 l 170 662 q 34 747 170 734 q 174 1017 137 886 l 246 968 q 334 936 294 936 q 373 945 355 936 q 331 842 373 854 q 309 838 321 838 q 218 871 271 838 l 180 794 q 271 662 271 754 l 271 556 l 678 556 z "},"ឣ":{"ha":949,"x_min":34,"x_max":882,"o":"m 678 556 l 678 662 q 543 747 678 734 q 682 1017 646 886 l 755 968 q 843 936 803 936 q 882 945 863 936 q 840 842 882 854 q 817 838 829 838 q 726 871 780 838 l 689 794 q 780 662 780 754 l 780 68 q 712 0 780 0 q 621 78 665 0 q 576 231 576 156 q 644 326 576 326 l 678 326 l 678 454 l 271 454 l 271 68 q 203 0 271 0 q 112 78 156 0 q 68 231 68 156 q 136 326 68 326 l 170 326 l 170 662 q 34 747 170 734 q 174 1017 137 886 l 246 968 q 334 936 294 936 q 373 945 355 936 q 331 842 373 854 q 309 838 321 838 q 218 871 271 838 l 180 794 q 271 662 271 754 l 271 556 l 678 556 z "},"ឤ":{"ha":1390,"x_min":34,"x_max":1221,"o":"m 1221 129 q 1153 0 1221 41 l 1051 0 q 1119 129 1119 47 l 1119 761 l 879 895 l 730 771 q 780 662 780 754 l 780 68 q 712 0 780 0 q 621 78 665 0 q 576 231 576 156 q 644 326 576 326 l 678 326 l 678 454 l 271 454 l 271 68 q 203 0 271 0 q 112 78 156 0 q 68 231 68 156 q 136 326 68 326 l 170 326 l 170 662 q 34 747 170 734 q 174 1017 137 886 l 246 968 q 334 936 294 936 q 373 945 355 936 q 331 842 373 854 q 309 838 321 838 q 218 871 271 838 l 180 794 q 271 662 271 754 l 271 556 l 678 556 l 678 662 q 543 747 678 734 l 867 1017 l 1175 848 q 1221 761 1221 822 l 1221 129 z "},"ឥ":{"ha":949,"x_min":102,"x_max":780,"o":"m 780 1042 q 515 814 780 814 q 333 878 426 814 l 278 916 l 203 863 q 271 790 203 840 l 170 765 q 102 838 102 800 l 102 874 q 146 928 102 899 l 191 958 q 288 1017 266 1017 q 387 966 304 1017 q 515 916 475 916 q 678 1042 678 916 q 481 1146 678 1146 q 576 1221 481 1221 q 780 1042 780 1221 m 271 203 l 271 102 q 319 144 298 102 q 339 217 339 186 q 305 244 339 244 q 271 203 271 244 m 678 548 l 475 683 l 271 548 l 271 336 q 305 339 287 339 q 441 217 441 339 q 387 73 441 146 q 271 0 334 0 q 170 102 170 0 l 170 548 q 208 627 170 601 l 475 787 l 742 627 q 780 548 780 601 l 780 129 q 712 0 780 41 l 610 0 q 678 129 678 47 l 678 548 z "},"ឦ":{"ha":1390,"x_min":170,"x_max":1221,"o":"m 271 203 l 271 102 q 319 144 298 102 q 339 217 339 186 q 305 244 339 244 q 271 203 271 244 m 305 -319 l 305 -373 q 353 -340 353 -373 q 326 -319 353 -319 l 305 -319 m 780 129 q 712 0 780 41 l 610 0 q 678 129 678 47 l 678 779 l 475 913 l 271 779 l 271 336 q 305 339 287 339 q 441 217 441 339 q 387 73 441 146 q 271 0 334 0 q 170 102 170 0 l 170 779 q 208 858 170 831 l 475 1017 l 742 858 q 780 779 780 831 l 780 129 m 1221 -271 q 1051 -441 1221 -441 l 814 -441 q 644 -271 644 -441 l 644 -243 l 475 -176 l 305 -243 l 305 -251 l 326 -251 q 420 -339 420 -251 q 305 -441 420 -441 l 203 -441 l 203 -174 l 475 -68 l 746 -174 l 746 -271 q 814 -339 746 -339 l 1051 -339 q 1119 -271 1119 -339 l 1119 1112 q 960 1255 1119 1255 l 814 1255 q 644 1384 644 1255 q 658 1460 644 1415 q 671 1554 671 1506 q 587 1601 671 1601 q 655 1669 587 1669 q 773 1554 773 1669 q 760 1457 773 1496 q 746 1384 746 1418 q 814 1356 746 1356 l 960 1356 q 1221 1112 1221 1356 l 1221 -271 z "},"ឧ":{"ha":916,"x_min":170,"x_max":746,"o":"m 746 339 l 746 -7 q 678 -136 746 -95 l 576 -136 q 644 -7 644 -88 l 644 176 q 621 146 633 161 l 557 73 l 526 37 q 466 0 494 0 q 377 55 437 0 l 317 110 l 256 165 q 225 220 225 193 q 252 269 225 245 l 532 514 q 644 746 644 612 q 458 916 644 916 q 271 780 271 916 q 312 712 271 712 q 359 753 312 746 q 371 754 365 754 q 423 713 408 754 q 429 687 429 699 q 400 642 429 659 q 312 617 359 617 q 170 780 170 617 q 254 956 170 895 q 458 1017 339 1017 q 661 960 576 1017 q 746 746 746 902 q 597 435 746 565 l 547 391 l 349 218 l 460 117 l 657 339 l 746 339 z "},"ឨ":{"ha":916,"x_min":100,"x_max":853,"o":"m 100 1141 l 189 1223 l 234 1263 q 299 1304 279 1304 q 358 1281 319 1304 l 397 1258 l 475 1212 l 539 1258 l 571 1281 q 623 1304 603 1304 q 671 1280 643 1304 l 701 1257 q 853 1168 758 1208 q 766 1103 806 1103 q 747 1107 756 1103 q 618 1194 698 1127 l 475 1095 l 309 1196 l 200 1095 q 176 1085 189 1085 q 100 1141 144 1085 m 746 339 l 746 -7 q 678 -136 746 -95 l 576 -136 q 644 -7 644 -88 l 644 176 q 621 146 633 161 l 557 73 l 526 37 q 466 0 494 0 q 377 55 437 0 l 317 110 l 256 165 q 225 220 225 193 q 252 269 225 245 l 532 514 q 644 746 644 612 q 458 916 644 916 q 271 780 271 916 q 312 712 271 712 q 359 753 312 746 q 371 754 365 754 q 423 713 408 754 q 429 687 429 699 q 400 642 429 659 q 312 617 359 617 q 170 780 170 617 q 254 956 170 895 q 458 1017 339 1017 q 661 960 576 1017 q 746 746 746 902 q 597 435 746 565 l 547 391 l 349 218 l 460 117 l 657 339 l 746 339 z "},"ឩ":{"ha":949,"x_min":170,"x_max":916,"o":"m 746 339 l 746 -7 q 678 -136 746 -95 l 576 -136 q 644 -7 644 -88 l 644 176 q 621 146 633 161 l 557 73 l 526 37 q 466 0 494 0 q 377 55 437 0 l 317 110 l 256 165 q 225 220 225 193 q 252 269 225 245 l 532 514 q 644 746 644 612 q 458 916 644 916 q 271 780 271 916 q 312 712 271 712 q 359 753 312 746 q 371 754 365 754 q 423 713 408 754 q 429 687 429 699 q 400 642 429 659 q 312 617 359 617 q 170 780 170 617 q 254 956 170 895 q 458 1017 339 1017 q 661 960 576 1017 q 746 746 746 902 q 597 435 746 565 l 547 391 l 349 218 l 460 117 l 657 339 l 746 339 m 916 339 l 916 -7 q 848 -136 916 -95 l 746 -136 q 814 -7 814 -88 l 814 339 l 916 339 z "},"ឪ":{"ha":916,"x_min":102,"x_max":780,"o":"m 780 1313 q 515 1085 780 1085 q 333 1149 426 1085 l 278 1187 l 203 1134 q 271 1061 203 1112 l 170 1036 q 102 1109 102 1072 l 102 1145 q 146 1200 102 1171 l 191 1229 q 288 1289 266 1289 q 387 1237 304 1289 q 515 1187 475 1187 q 678 1313 678 1187 q 481 1417 678 1417 q 576 1492 481 1492 q 780 1313 780 1492 m 746 339 l 746 -7 q 678 -136 746 -95 l 576 -136 q 644 -7 644 -88 l 644 176 q 621 146 633 161 l 557 73 l 526 37 q 466 0 494 0 q 377 55 437 0 l 317 110 l 256 165 q 225 220 225 193 q 252 269 225 245 l 532 514 q 644 746 644 612 q 458 916 644 916 q 271 780 271 916 q 312 712 271 712 q 359 753 312 746 q 371 754 365 754 q 423 713 408 754 q 429 687 429 699 q 400 642 429 659 q 312 617 359 617 q 170 780 170 617 q 254 956 170 895 q 458 1017 339 1017 q 661 960 576 1017 q 746 746 746 902 q 597 435 746 565 l 547 391 l 349 218 l 460 117 l 657 339 l 746 339 z "},"ឫ":{"ha":949,"x_min":34,"x_max":882,"o":"m 678 9 q 610 0 648 0 l 339 0 q 170 170 170 0 l 170 662 q 34 747 170 734 q 174 1017 137 886 l 246 968 q 334 936 294 936 q 373 945 355 936 q 331 842 373 854 q 309 838 321 838 q 218 871 271 838 l 180 794 q 271 662 271 754 l 271 170 q 339 102 271 102 l 610 102 q 678 170 678 102 l 678 662 q 543 747 678 734 q 682 1017 646 886 l 755 968 q 843 936 803 936 q 882 945 863 936 q 840 842 882 854 q 817 838 829 838 q 726 871 780 838 l 689 794 q 780 662 780 754 l 780 -127 q 389 -441 780 -441 q 140 -403 233 -441 q 60 -348 60 -371 q 62 -340 60 -344 q 115 -301 73 -301 q 163 -310 136 -301 q 389 -339 249 -339 q 678 -127 678 -339 l 678 9 z "},"ឬ":{"ha":949,"x_min":34,"x_max":882,"o":"m 678 9 q 610 0 648 0 l 339 0 q 170 170 170 0 l 170 662 q 34 747 170 734 q 174 1017 137 886 l 246 968 q 334 936 294 936 q 373 945 355 936 q 331 842 373 854 q 309 838 321 838 q 218 871 271 838 l 180 794 q 271 662 271 754 l 271 170 q 339 102 271 102 l 610 102 q 678 170 678 102 l 678 662 q 543 747 678 734 q 682 1017 646 886 l 755 968 q 843 936 803 936 q 882 945 863 936 q 840 842 882 854 q 817 838 829 838 q 726 871 780 838 l 689 794 q 780 662 780 754 l 780 -127 q 760 -252 780 -197 l 762 -264 q 814 -339 777 -339 q 882 -390 882 -339 q 814 -441 882 -441 q 695 -351 726 -441 q 389 -441 597 -441 q 140 -403 233 -441 q 60 -348 60 -371 q 62 -340 60 -344 q 115 -301 73 -301 q 163 -310 136 -301 q 389 -339 249 -339 q 678 -127 678 -339 l 678 9 z "},"ឭ":{"ha":949,"x_min":60,"x_max":780,"o":"m 271 203 l 271 102 q 319 144 298 102 q 339 217 339 186 q 305 244 339 244 q 271 203 271 244 m 678 782 l 596 871 l 474 760 l 352 871 l 271 782 l 271 336 q 305 339 287 339 q 441 217 441 339 q 387 73 441 146 q 271 0 334 0 q 170 102 170 0 l 170 770 q 214 871 170 821 l 345 1017 l 474 897 l 603 1017 l 734 871 q 780 770 780 821 l 780 -127 q 389 -441 780 -441 q 140 -403 233 -441 q 60 -347 60 -370 q 62 -340 60 -344 q 115 -301 73 -301 q 163 -310 136 -301 q 389 -339 249 -339 q 678 -127 678 -339 l 678 782 z "},"ឮ":{"ha":949,"x_min":60,"x_max":882,"o":"m 271 203 l 271 102 q 319 144 298 102 q 339 217 339 186 q 305 244 339 244 q 271 203 271 244 m 695 -351 q 389 -441 597 -441 q 140 -403 233 -441 q 60 -347 60 -370 q 62 -340 60 -344 q 115 -301 73 -301 q 163 -310 136 -301 q 389 -339 249 -339 q 678 -127 678 -339 l 678 782 l 596 871 l 474 760 l 352 871 l 271 782 l 271 336 q 305 339 287 339 q 441 217 441 339 q 387 73 441 146 q 271 0 334 0 q 170 102 170 0 l 170 770 q 214 871 170 821 l 345 1017 l 474 897 l 603 1017 l 734 871 q 780 770 780 821 l 780 -127 q 760 -252 780 -197 l 762 -264 q 814 -339 777 -339 q 882 -390 882 -339 q 814 -441 882 -441 q 695 -351 726 -441 z "},"ឯ":{"ha":949,"x_min":102,"x_max":780,"o":"m 780 68 q 729 0 780 0 q 626 51 678 0 l 475 199 l 323 51 q 220 0 271 0 q 170 68 170 0 l 170 536 q 102 631 102 536 q 203 739 102 739 q 271 671 271 739 l 271 139 l 475 338 l 678 139 l 678 773 q 540 916 678 916 q 405 899 450 916 q 305 882 359 882 q 170 1011 170 882 q 183 1087 170 1042 q 197 1181 197 1133 q 113 1228 197 1228 q 180 1296 113 1296 q 298 1181 298 1296 q 285 1084 298 1123 q 271 1011 271 1045 q 305 983 271 983 q 385 1000 339 983 q 540 1017 429 1017 q 780 773 780 1017 l 780 68 z "},"ឰ":{"ha":949,"x_min":170,"x_max":780,"o":"m 537 -188 q 616 -218 583 -218 q 637 -215 627 -218 q 675 -79 669 -198 q 537 -188 613 -142 m 271 203 l 271 102 q 319 144 298 102 q 339 217 339 186 q 305 244 339 244 q 271 203 271 244 m 439 -245 q 263 -307 351 -290 q 353 -339 318 -339 q 417 -328 388 -339 q 440 -272 440 -320 q 439 -245 440 -260 m 678 782 l 596 871 l 474 760 l 352 871 l 271 782 l 271 336 q 305 339 287 339 q 441 217 441 339 q 387 73 441 146 q 271 0 334 0 q 170 102 170 0 l 170 770 q 214 871 170 821 l 345 1017 l 474 897 l 603 1017 l 734 871 q 780 770 780 821 l 780 26 q 680 -299 780 -243 q 620 -315 650 -315 q 517 -272 570 -315 q 525 -313 525 -294 q 483 -393 525 -360 q 363 -441 422 -441 q 237 -406 304 -441 q 170 -311 170 -372 q 243 -219 170 -239 q 677 54 454 -157 l 678 55 l 678 782 z "},"ឱ":{"ha":916,"x_min":170,"x_max":780,"o":"m 746 339 l 746 -7 q 678 -136 746 -95 l 576 -136 q 644 -7 644 -88 l 644 176 q 621 146 633 161 l 557 73 l 526 37 q 466 0 494 0 q 377 55 437 0 l 317 110 l 256 165 q 225 220 225 193 q 252 269 225 245 l 532 514 q 644 746 644 612 q 458 916 644 916 q 271 780 271 916 q 312 712 271 712 q 359 753 312 746 q 371 754 365 754 q 423 713 408 754 q 429 687 429 699 q 400 642 429 659 q 312 617 359 617 q 170 780 170 617 q 254 956 170 895 q 458 1017 339 1017 q 661 960 576 1017 q 746 746 746 902 q 597 435 746 565 l 547 391 l 349 218 l 460 117 l 657 339 l 746 339 m 323 1147 q 479 1043 470 1118 l 376 1043 q 170 1109 315 1088 q 429 1279 261 1279 q 779 1092 557 1279 q 780 1083 780 1087 q 744 1030 780 1030 q 703 1042 728 1030 q 431 1176 543 1176 l 429 1176 q 323 1147 368 1176 z "},"ឲ":{"ha":949,"x_min":170,"x_max":780,"o":"m 271 170 q 339 102 271 102 l 610 102 q 678 170 678 102 l 678 264 q 659 326 678 301 q 605 351 644 345 q 592 339 599 345 l 475 241 q 435 222 454 222 q 399 242 415 222 q 384 276 384 260 q 405 314 384 296 l 522 414 q 655 551 618 496 q 678 610 678 587 q 654 663 678 646 q 593 678 633 678 q 532 663 553 678 q 509 610 509 646 q 583 570 509 570 q 500 509 543 509 q 433 534 460 509 q 407 610 407 559 q 454 730 407 680 q 593 780 502 780 q 732 730 684 780 q 780 610 780 680 q 760 532 780 573 q 680 422 735 480 q 748 377 724 408 q 780 264 780 336 l 780 170 q 610 0 780 0 l 339 0 q 170 170 170 0 l 170 848 q 339 1017 170 1017 l 610 1017 q 780 848 780 1017 l 678 848 q 610 916 678 916 l 339 916 q 271 848 271 916 l 271 170 z "},"ឳ":{"ha":916,"x_min":170,"x_max":843,"o":"m 746 339 l 746 -7 q 678 -136 746 -95 l 576 -136 q 644 -7 644 -88 l 644 176 q 621 146 633 161 l 557 73 l 526 37 q 466 0 494 0 q 377 55 437 0 l 317 110 l 256 165 q 225 220 225 193 q 252 269 225 245 l 532 514 q 644 746 644 612 q 458 916 644 916 q 271 780 271 916 q 312 712 271 712 q 359 753 312 746 q 371 754 365 754 q 423 713 408 754 q 429 687 429 699 q 400 642 429 659 q 312 617 359 617 q 170 780 170 617 q 254 956 170 895 q 458 1017 339 1017 q 661 960 576 1017 q 746 746 746 902 q 597 435 746 565 l 547 391 l 349 218 l 460 117 l 657 339 l 746 339 m 780 1083 q 744 1030 780 1030 q 703 1042 728 1030 q 431 1176 543 1176 l 429 1176 q 323 1147 368 1176 q 479 1043 470 1118 l 376 1043 q 170 1109 315 1088 q 429 1279 261 1279 q 645 1194 515 1279 q 640 1251 640 1224 q 803 1478 640 1408 l 843 1384 q 745 1241 745 1343 q 780 1099 745 1181 l 780 1083 z "},"ា":{"ha":441,"x_min":-313,"x_max":271,"o":"m -313 867 l -62 1017 l 227 866 q 271 781 271 841 l 271 129 q 203 0 271 41 l 102 0 q 170 129 170 47 l 170 781 l -58 900 l -248 787 l -313 867 z "},"ិ":{"ha":0,"x_min":-760,"x_max":-170,"o":"m -760 1370 q -543 1539 -760 1539 q -288 1438 -407 1539 q -170 1285 -170 1336 q -237 1234 -170 1234 l -590 1234 q -760 1370 -760 1234 m -644 1370 q -590 1336 -644 1336 l -326 1336 q -543 1424 -406 1424 q -644 1370 -644 1424 z "},"ី":{"ha":0,"x_min":-760,"x_max":-170,"o":"m -590 1336 l -326 1336 q -543 1424 -406 1424 q -644 1370 -644 1424 q -590 1336 -644 1336 m -590 1234 q -760 1370 -760 1234 q -543 1539 -760 1539 q -288 1438 -407 1539 q -271 1423 -279 1430 l -271 1607 l -170 1607 l -170 1234 l -590 1234 z "},"ឹ":{"ha":0,"x_min":-760,"x_max":-136,"o":"m -405 1394 q -543 1421 -465 1421 q -644 1368 -644 1421 q -590 1335 -644 1335 l -326 1335 q -374 1376 -348 1358 q -389 1383 -382 1379 q -405 1394 -397 1388 m -228 1379 q -170 1284 -170 1320 q -237 1234 -170 1234 l -590 1234 q -760 1368 -760 1234 q -543 1535 -760 1535 q -475 1529 -508 1535 q -452 1612 -474 1572 q -388 1674 -429 1652 q -305 1695 -348 1695 q -222 1674 -262 1695 q -158 1612 -181 1652 q -136 1529 -136 1572 q -158 1445 -136 1485 q -220 1383 -180 1405 q -228 1379 -224 1381 m -305 1595 q -338 1587 -322 1595 q -364 1562 -355 1578 q -373 1529 -373 1546 q -364 1495 -373 1511 q -338 1470 -355 1479 q -305 1461 -322 1461 q -271 1470 -288 1461 q -246 1495 -255 1479 q -237 1529 -237 1511 q -247 1562 -237 1546 q -272 1587 -256 1578 q -305 1595 -288 1595 z "},"ឺ":{"ha":0,"x_min":-760,"x_max":-170,"o":"m -590 1336 l -326 1336 q -543 1424 -406 1424 q -644 1370 -644 1424 q -590 1336 -644 1336 m -441 1525 l -441 1641 l -339 1641 l -338 1476 q -288 1438 -313 1459 q -271 1423 -279 1430 l -271 1607 l -170 1607 l -170 1234 l -590 1234 q -760 1370 -760 1234 q -543 1539 -760 1539 q -441 1525 -490 1539 z "},"ុ":{"ha":0,"x_min":-326,"x_max":-170,"o":"m -244 -68 q -170 -136 -170 -68 l -170 -441 l -271 -441 l -271 -203 q -326 -136 -326 -203 q -244 -68 -326 -68 z "},"ូ":{"ha":0,"x_min":-464,"x_max":-90,"o":"m -305 -441 q -426 -396 -395 -441 q -446 -331 -446 -368 q -439 -286 -446 -310 l -410 -203 q -464 -136 -464 -203 q -382 -68 -464 -68 q -299 -153 -299 -68 q -313 -237 -299 -188 l -336 -304 q -338 -316 -338 -311 q -294 -339 -338 -339 q -194 -203 -244 -339 l -144 -68 l -107 -68 q -90 -115 -90 -68 q -136 -307 -90 -174 q -305 -441 -182 -441 z "},"ួ":{"ha":0,"x_min":-542,"x_max":-70,"o":"m -292 -348 q -477 -441 -385 -441 q -542 -353 -542 -441 q -454 -203 -542 -301 q -439 -172 -439 -186 q -481 -136 -439 -149 q -409 -68 -481 -68 q -339 -113 -339 -68 q -382 -231 -339 -159 q -429 -331 -429 -310 q -422 -339 -429 -339 q -264 -222 -367 -339 q -199 -339 -243 -339 q -134 -136 -170 -339 l -123 -68 l -96 -68 q -70 -134 -70 -68 q -81 -270 -70 -201 q -199 -441 -106 -441 q -292 -348 -255 -441 z "},"ើ":{"ha":0,"x_min":-760,"x_max":-170,"o":"m -590 1336 l -326 1336 q -543 1424 -406 1424 q -644 1370 -644 1424 q -590 1336 -644 1336 m -590 1234 q -760 1370 -760 1234 q -543 1539 -760 1539 q -288 1438 -407 1539 q -271 1423 -279 1430 l -271 1607 l -170 1607 l -170 1234 l -590 1234 z "},"ឿ":{"ha":441,"x_min":-434,"x_max":271,"o":"m -264 1390 l 0 1390 q -217 1478 -81 1478 q -319 1424 -319 1478 q -264 1390 -319 1390 m 156 1356 l 203 1320 q 271 1153 271 1270 l 271 -271 q 102 -441 271 -441 l -102 -441 q -271 -271 -271 -441 l -271 -68 l -170 -68 l -170 -271 q -102 -339 -170 -339 l 102 -339 q 170 -271 170 -339 l 170 1153 q 68 1289 170 1255 l -264 1289 q -434 1424 -434 1289 q -217 1594 -434 1594 q -115 1579 -165 1594 l -115 1695 l -14 1695 l -13 1531 q 37 1492 13 1514 q 54 1477 46 1485 l 54 1662 l 156 1662 l 156 1356 z "},"ៀ":{"ha":441,"x_min":-362,"x_max":271,"o":"m 170 1112 q 11 1255 170 1255 l -136 1255 q -305 1384 -305 1255 q -292 1460 -305 1415 q -278 1554 -278 1506 q -362 1601 -278 1601 q -294 1669 -362 1669 q -176 1554 -176 1669 q -190 1457 -176 1496 q -203 1384 -203 1418 q -136 1356 -203 1356 l 11 1356 q 271 1112 271 1356 l 271 -271 q 102 -441 271 -441 l -102 -441 q -271 -271 -271 -441 l -271 -68 l -170 -68 l -170 -271 q -102 -339 -170 -339 l 102 -339 q 170 -271 170 -339 l 170 1112 z "},"េ":{"ha":441,"x_min":34,"x_max":373,"o":"m 170 662 q 34 747 170 734 q 174 1017 137 886 l 246 968 q 334 936 294 936 q 373 945 355 936 q 331 842 373 854 q 309 838 321 838 q 218 871 271 838 l 180 794 q 271 662 271 754 l 271 326 l 305 326 q 373 231 373 326 q 329 78 373 156 q 237 0 285 0 q 170 68 170 0 l 170 662 z "},"ែ":{"ha":441,"x_min":34,"x_max":407,"o":"m 183 1221 q 146 1204 146 1221 q 203 1187 146 1187 q 277 1209 249 1187 q 305 1268 305 1231 q 285 1345 305 1319 q 231 1370 264 1370 q 170 1421 170 1370 q 231 1472 170 1472 q 357 1423 307 1472 q 407 1268 407 1373 q 358 1141 407 1197 q 203 1085 309 1085 q 81 1106 127 1085 q 34 1187 34 1127 q 53 1267 34 1246 q 109 1289 71 1289 q 164 1272 146 1289 q 183 1221 183 1255 m 170 662 q 34 747 170 734 q 174 1017 137 886 l 246 968 q 334 936 294 936 q 373 945 355 936 q 331 842 373 854 q 309 838 321 838 q 218 871 271 838 l 180 794 q 271 662 271 754 l 271 326 l 305 326 q 373 231 373 326 q 329 78 373 156 q 237 0 285 0 q 170 68 170 0 l 170 662 z "},"ៃ":{"ha":441,"x_min":34,"x_max":407,"o":"m 153 1234 q 203 1211 203 1234 q 237 1187 203 1187 q 305 1234 305 1187 q 288 1285 305 1268 q 237 1302 271 1302 l 203 1302 q 102 1370 102 1302 q 34 1424 102 1424 q 102 1492 34 1492 q 179 1461 155 1492 q 203 1397 203 1431 l 237 1397 q 369 1360 331 1397 q 407 1234 407 1322 q 369 1119 407 1153 q 237 1085 331 1085 q 102 1180 102 1085 q 153 1234 102 1234 m 170 662 q 34 747 170 734 q 174 1017 137 886 l 246 968 q 334 936 294 936 q 373 945 355 936 q 331 842 373 854 q 309 838 321 838 q 218 871 271 838 l 180 794 q 271 662 271 754 l 271 326 l 305 326 q 373 231 373 326 q 329 78 373 156 q 237 0 285 0 q 170 68 170 0 l 170 662 z "},"ោ":{"ha":441,"x_min":-313,"x_max":271,"o":"m -313 867 l -62 1017 l 227 866 q 271 781 271 841 l 271 129 q 203 0 271 41 l 102 0 q 170 129 170 47 l 170 781 l -58 900 l -248 787 l -313 867 z "},"ៅ":{"ha":441,"x_min":-312,"x_max":271,"o":"m 170 896 l 170 1133 q 98 1200 170 1187 q 27 1289 27 1214 l 105 1289 q 271 1133 271 1289 l 271 129 q 203 0 271 41 l 102 0 q 170 129 170 47 l 170 781 l -58 900 l -248 787 l -312 868 l -62 1017 l 170 896 z "},"ំ":{"ha":0,"x_min":-627,"x_max":-322,"o":"m -526 1387 q -513 1349 -526 1362 q -475 1336 -500 1336 q -436 1349 -449 1336 q -424 1387 -424 1362 q -436 1425 -424 1413 q -475 1438 -449 1438 q -513 1425 -500 1438 q -526 1387 -526 1413 m -322 1387 q -360 1272 -322 1310 q -475 1234 -398 1234 q -589 1272 -551 1234 q -627 1387 -627 1310 q -589 1501 -627 1463 q -475 1539 -551 1539 q -360 1501 -398 1539 q -322 1387 -322 1463 z "},"ះ":{"ha":644,"x_min":170,"x_max":475,"o":"m 271 831 q 284 793 271 806 q 322 780 297 780 q 360 793 348 780 q 373 831 373 806 q 360 869 373 857 q 322 882 348 882 q 284 869 297 882 q 271 831 271 857 m 475 831 q 437 716 475 754 q 322 678 399 678 q 208 716 245 678 q 170 831 170 754 q 208 945 170 907 q 322 983 245 983 q 437 945 399 983 q 475 831 475 907 m 271 186 q 284 149 271 161 q 322 136 297 136 q 360 149 348 136 q 373 186 373 161 q 360 224 373 212 q 322 237 348 237 q 284 224 297 237 q 271 186 271 212 m 475 186 q 437 72 475 110 q 322 34 399 34 q 208 72 245 34 q 170 186 170 110 q 208 301 170 263 q 322 339 245 339 q 437 301 399 339 q 475 186 475 263 z "},"ៈ":{"ha":543,"x_min":170,"x_max":407,"o":"m 254 102 q 191 123 212 102 q 170 186 170 144 q 191 250 170 229 q 254 271 212 271 q 318 250 297 271 q 339 186 339 229 q 356 165 339 165 q 407 186 373 165 q 352 123 390 144 q 254 102 313 102 m 254 745 q 191 766 212 745 q 170 829 170 787 q 191 893 170 872 q 254 914 212 914 q 318 892 297 914 q 339 829 339 871 q 356 808 339 808 q 407 829 373 808 q 352 766 390 787 q 254 745 313 745 z "},"៉":{"ha":0,"x_min":-627,"x_max":-322,"o":"m -543 1506 l -543 1302 q -585 1234 -543 1248 q -627 1302 -627 1248 l -627 1506 l -543 1506 m -322 1506 l -322 1302 q -364 1234 -322 1248 q -407 1302 -407 1248 l -407 1506 l -322 1506 z "},"៊":{"ha":0,"x_min":-850,"x_max":-96,"o":"m -850 1205 l -760 1281 l -715 1318 q -650 1356 -670 1356 q -591 1335 -631 1356 l -553 1314 l -475 1271 l -410 1314 l -378 1335 q -326 1356 -347 1356 q -278 1334 -307 1356 l -249 1312 q -96 1230 -191 1267 q -182 1169 -142 1169 q -203 1173 -193 1169 q -332 1254 -252 1192 l -475 1162 l -640 1255 l -749 1162 q -774 1153 -760 1153 q -850 1205 -805 1153 z "},"់":{"ha":0,"x_min":-526,"x_max":-424,"o":"m -424 1539 l -424 1302 q -475 1234 -424 1248 q -526 1302 -526 1248 l -526 1539 l -424 1539 z "},"៌":{"ha":0,"x_min":-708,"x_max":-241,"o":"m -597 1268 q -664 1234 -638 1234 q -699 1251 -686 1234 q -708 1275 -708 1263 q -665 1329 -708 1301 l -601 1369 q -466 1518 -505 1430 q -428 1632 -428 1606 q -377 1695 -428 1695 q -327 1632 -327 1695 q -370 1516 -328 1587 q -485 1376 -412 1445 q -406 1386 -444 1386 q -355 1381 -380 1386 q -255 1318 -296 1370 q -241 1280 -241 1297 q -267 1242 -241 1255 q -295 1234 -281 1234 q -341 1265 -321 1234 q -417 1319 -371 1313 q -467 1321 -445 1321 q -526 1314 -507 1321 q -597 1268 -555 1301 z "},"៍":{"ha":0,"x_min":-543,"x_max":-61,"o":"m -441 1360 q -433 1329 -441 1341 q -400 1316 -424 1316 q -366 1329 -366 1316 q -319 1336 -366 1336 q -271 1315 -271 1336 q -301 1255 -271 1275 q -397 1234 -331 1234 q -513 1264 -483 1234 q -543 1360 -543 1294 q -502 1476 -543 1432 q -393 1519 -461 1519 q -275 1479 -307 1519 q -179 1526 -223 1496 q -107 1604 -136 1555 l -100 1605 q -74 1572 -87 1605 q -61 1529 -61 1538 q -69 1512 -61 1519 q -140 1436 -100 1470 q -233 1377 -182 1402 q -280 1370 -257 1370 q -373 1417 -330 1417 q -422 1398 -404 1417 q -441 1360 -441 1379 z "},"៎":{"ha":0,"x_min":-617,"x_max":-332,"o":"m -515 1335 l -617 1335 l -617 1417 l -515 1417 l -515 1518 l -434 1518 l -434 1417 l -332 1417 l -332 1335 l -434 1335 l -434 1234 l -515 1234 l -515 1335 z "},"៏":{"ha":0,"x_min":-705,"x_max":-244,"o":"m -326 1675 q -258 1624 -258 1675 q -326 1573 -258 1573 q -381 1506 -349 1573 l -392 1472 l -461 1472 q -604 1370 -604 1472 q -576 1322 -604 1322 q -475 1415 -549 1322 q -366 1322 -400 1322 q -346 1343 -346 1322 q -380 1370 -346 1370 q -312 1438 -380 1438 q -244 1343 -244 1438 q -363 1234 -244 1234 q -475 1302 -427 1234 q -580 1234 -522 1234 q -705 1370 -705 1234 q -461 1560 -705 1560 q -326 1675 -412 1675 z "},"័":{"ha":0,"x_min":-543,"x_max":-68,"o":"m -427 1506 q -339 1434 -339 1506 q -390 1370 -339 1370 q -441 1404 -434 1370 q -339 1337 -441 1337 q -212 1373 -254 1337 q -170 1447 -170 1409 q -203 1545 -170 1528 q -237 1596 -237 1562 q -203 1630 -237 1630 q -110 1575 -153 1630 q -68 1447 -68 1521 q -144 1287 -68 1340 q -339 1234 -220 1234 q -543 1404 -543 1234 q -427 1506 -543 1506 z "},"៑":{"ha":0,"x_min":-678,"x_max":-170,"o":"m -170 1221 l -170 1153 l -678 1153 l -678 1221 l -170 1221 z "},"្":{"ha":0,"x_min":-610,"x_max":-339,"o":"m -339 -305 l -441 -305 l -441 -407 l -509 -407 l -509 -305 l -610 -305 l -610 -237 l -509 -237 l -509 -136 l -441 -136 l -441 -237 l -339 -237 l -339 -305 z "},"៓":{"ha":0,"x_min":-695,"x_max":-356,"o":"m -627 1187 q -602 1136 -627 1153 q -526 1119 -576 1119 q -449 1136 -475 1119 q -424 1187 -424 1153 q -449 1238 -424 1221 q -526 1255 -475 1255 q -602 1238 -576 1255 q -627 1187 -627 1221 m -356 1187 q -399 1085 -356 1119 q -526 1051 -441 1051 q -652 1085 -610 1051 q -695 1187 -695 1119 q -652 1289 -695 1255 q -526 1322 -610 1322 q -399 1289 -441 1322 q -356 1187 -356 1255 z "},"។":{"ha":1051,"x_min":305,"x_max":882,"o":"m 780 944 l 780 1017 l 882 1017 l 882 139 q 849 30 882 60 q 753 0 817 0 q 697 17 715 0 q 678 68 678 34 q 750 81 721 68 q 780 139 780 94 l 780 794 q 509 678 652 678 q 305 848 305 678 q 475 1017 305 1017 q 543 966 543 1017 q 475 916 543 916 q 407 848 407 916 q 509 780 407 780 q 780 944 656 780 z "},"៕":{"ha":1255,"x_min":305,"x_max":1085,"o":"m 983 1017 l 1085 1017 l 1085 102 q 1043 26 1085 51 q 916 0 1000 0 q 966 42 949 17 q 983 102 983 68 l 983 1017 m 780 944 l 780 1017 l 882 1017 l 882 139 q 849 30 882 60 q 753 0 817 0 q 697 17 715 0 q 678 68 678 34 q 750 81 721 68 q 780 139 780 94 l 780 794 q 509 678 652 678 q 305 848 305 678 q 475 1017 305 1017 q 543 966 543 1017 q 475 916 543 916 q 407 848 407 916 q 509 780 407 780 q 780 944 656 780 z "},"៖":{"ha":916,"x_min":305,"x_max":746,"o":"m 475 831 q 488 793 475 806 q 526 780 500 780 q 564 793 551 780 q 576 831 576 806 q 564 869 576 857 q 526 882 551 882 q 488 869 500 882 q 475 831 475 857 m 678 831 q 640 716 678 754 q 526 678 602 678 q 411 716 449 678 q 373 831 373 754 q 411 945 373 907 q 526 983 449 983 q 640 945 602 983 q 678 831 678 907 m 475 186 q 488 149 475 161 q 526 136 500 136 q 564 149 551 136 q 576 186 576 161 q 564 224 576 212 q 526 237 551 237 q 488 224 500 237 q 475 186 475 212 m 678 186 q 640 72 678 110 q 526 34 602 34 q 411 72 449 34 q 373 186 373 110 q 411 301 373 263 q 526 339 449 339 q 640 301 602 339 q 678 186 678 263 m 746 559 l 746 457 l 305 457 l 305 559 l 746 559 z "},"ៗ":{"ha":983,"x_min":170,"x_max":814,"o":"m 331 648 q 206 691 243 648 q 170 806 170 734 q 240 911 191 855 q 347 1017 290 968 l 532 875 l 728 1017 l 814 1017 l 814 237 q 743 59 814 119 q 532 0 673 0 q 321 30 391 0 q 250 119 250 59 q 270 178 250 158 q 331 197 290 197 q 381 117 331 133 q 532 102 431 102 q 663 127 614 102 q 712 237 712 153 l 712 874 l 533 756 l 361 874 l 288 806 q 299 763 288 772 q 331 753 309 753 q 361 762 351 753 q 371 787 371 770 q 401 772 391 787 q 411 728 411 758 q 391 673 411 698 q 331 648 371 648 z "},"៘":{"ha":3323,"x_min":305,"x_max":3153,"o":"m 780 944 l 780 1017 l 882 1017 l 882 139 q 849 30 882 60 q 753 0 817 0 q 697 17 715 0 q 678 68 678 34 q 750 81 721 68 q 780 139 780 94 l 780 794 q 509 678 652 678 q 305 848 305 678 q 475 1017 305 1017 q 543 966 543 1017 q 475 916 543 916 q 407 848 407 916 q 509 780 407 780 q 780 944 656 780 m 3052 944 l 3052 1017 l 3153 1017 l 3153 139 q 3121 30 3153 60 q 3025 0 3089 0 q 2969 17 2987 0 q 2950 68 2950 34 q 3022 81 2993 68 q 3052 139 3052 94 l 3052 794 q 2780 678 2924 678 q 2577 848 2577 678 q 2747 1017 2577 1017 q 2814 966 2814 1017 q 2747 916 2814 916 q 2679 848 2679 916 q 2780 780 2679 780 q 3052 944 2928 780 m 1322 203 l 1322 102 q 1370 144 1350 102 q 1390 217 1390 186 q 1356 244 1390 244 q 1322 203 1322 244 m 2238 170 q 2068 0 2238 0 l 1865 0 q 1695 170 1695 0 l 1695 789 l 1509 912 l 1322 789 l 1322 336 q 1356 339 1338 339 q 1492 217 1492 339 q 1438 73 1492 146 q 1322 0 1385 0 q 1221 102 1221 0 l 1221 789 q 1259 868 1221 842 l 1509 1017 l 1759 868 q 1797 789 1797 842 l 1797 170 q 1865 102 1797 102 l 2068 102 q 2136 170 2136 102 l 2136 662 q 2001 747 2136 734 q 2140 1017 2104 886 l 2213 968 q 2301 936 2261 936 q 2340 945 2321 936 q 2298 842 2340 854 q 2275 838 2287 838 q 2184 871 2238 838 l 2147 794 q 2238 662 2238 754 l 2238 170 z "},"៙":{"ha":1424,"x_min":170,"x_max":1119,"o":"m 644 0 q 288 119 408 0 q 170 475 170 237 q 288 831 170 712 q 644 949 408 949 q 1000 831 881 949 q 1119 475 1119 712 q 1000 119 1119 237 q 644 0 881 0 m 644 848 q 271 475 271 848 q 644 102 271 102 q 1017 475 1017 102 q 644 848 1017 848 m 644 203 q 441 271 508 203 q 373 475 373 339 q 441 678 373 610 q 644 746 508 746 q 848 678 781 746 q 916 475 916 610 q 848 271 916 339 q 644 203 781 203 m 644 644 q 517 602 560 644 q 475 475 475 559 q 517 348 475 390 q 644 305 560 305 q 771 348 728 305 q 814 475 814 390 q 771 602 814 559 q 644 644 728 644 z "},"៚":{"ha":2611,"x_min":305,"x_max":2441,"o":"m 2117 365 q 2106 347 2106 353 q 2106 344 2106 345 q 2115 338 2110 338 q 2123 342 2119 338 q 2124 345 2124 343 q 2117 365 2124 350 m 1216 664 q 1257 753 1257 728 q 1253 767 1257 762 q 1221 783 1236 783 q 1184 760 1202 783 q 1179 744 1179 753 q 1208 676 1179 720 q 1216 664 1211 670 m 1404 298 q 1375 243 1375 260 q 1377 235 1375 238 q 1405 220 1390 220 q 1430 231 1417 220 q 1434 239 1434 233 q 1404 298 1434 257 m 1635 690 q 1662 737 1662 724 q 1661 742 1662 740 q 1638 755 1651 755 q 1618 747 1629 755 q 1615 739 1615 745 q 1635 690 1615 724 m 1789 317 q 1775 298 1775 302 q 1775 296 1775 297 q 1786 291 1780 291 q 1797 294 1792 291 q 1799 297 1799 295 q 1789 317 1799 302 m 2022 664 q 2039 685 2039 681 q 2039 686 2039 686 q 2031 689 2035 689 q 2018 683 2025 689 q 2017 680 2017 682 q 2022 664 2017 674 m 2140 500 q 2199 521 2168 513 q 2377 543 2277 543 q 2441 492 2441 543 q 2374 441 2441 441 l 2293 441 q 2190 418 2235 441 q 2209 367 2203 391 q 2214 331 2214 347 q 2182 264 2214 289 q 2109 235 2144 235 q 2098 236 2104 235 q 2024 284 2058 241 q 1997 351 1997 317 q 1999 371 1997 361 q 2060 452 2009 412 q 2038 484 2049 467 q 2016 513 2026 498 q 1946 454 1984 484 q 1856 379 1893 410 q 1878 331 1870 353 q 1889 275 1889 300 q 1860 215 1889 237 q 1786 186 1821 186 q 1773 186 1780 186 q 1697 238 1732 193 q 1681 285 1681 258 q 1705 358 1681 317 q 1733 398 1716 377 q 1674 475 1708 431 l 1628 533 q 1552 452 1594 495 q 1464 366 1501 404 q 1510 285 1494 321 q 1525 219 1525 248 q 1494 155 1525 178 q 1401 117 1445 117 q 1392 118 1396 117 q 1301 172 1344 122 q 1280 231 1280 197 q 1302 311 1280 266 q 1341 376 1317 341 q 1274 449 1312 408 q 1225 503 1248 477 q 1116 362 1179 438 q 833 91 965 181 q 587 0 700 0 q 376 127 446 0 q 305 509 305 254 q 386 890 305 763 q 627 1017 467 1017 q 869 950 789 1017 q 949 749 949 883 q 891 528 949 611 q 715 414 832 444 q 689 410 701 410 q 644 446 654 410 q 642 464 642 456 q 688 511 642 498 q 808 590 768 532 q 848 744 848 648 q 793 872 848 829 q 627 916 737 916 q 463 814 517 916 q 408 513 408 713 l 408 509 q 452 203 408 305 q 587 102 497 102 q 787 180 677 102 q 1027 416 897 259 q 1161 585 1109 514 q 1107 682 1124 637 q 1090 759 1090 724 q 1118 836 1090 804 q 1219 895 1168 894 l 1220 895 q 1318 838 1269 895 q 1343 766 1343 810 q 1318 663 1343 722 q 1278 585 1302 627 q 1342 514 1306 552 q 1400 449 1374 480 q 1476 528 1434 486 q 1569 619 1531 579 q 1533 704 1548 659 q 1522 762 1522 736 q 1555 833 1522 808 q 1641 867 1601 867 q 1652 867 1647 867 q 1736 812 1697 861 q 1754 758 1754 789 q 1729 673 1754 722 q 1691 611 1714 644 q 1746 541 1714 580 q 1799 470 1775 504 q 1870 534 1830 500 q 1955 604 1921 574 q 1932 661 1940 635 q 1926 701 1926 682 q 1957 764 1926 741 q 2030 793 1995 793 q 2043 792 2037 793 q 2120 741 2083 787 q 2136 694 2136 721 q 2112 624 2136 663 q 2080 579 2100 603 q 2112 538 2094 561 q 2140 500 2127 519 z "},"៛":{"ha":441,"x_min":34,"x_max":373,"o":"m 271 559 l 373 559 l 373 458 l 271 458 l 271 68 q 203 0 271 0 q 112 78 156 0 q 68 231 68 156 q 136 326 68 326 l 170 326 l 170 458 l 34 458 l 34 559 l 170 559 l 170 662 q 34 747 170 734 q 174 1017 137 886 l 246 968 q 334 936 294 936 q 373 945 355 936 q 331 842 373 854 q 309 838 321 838 q 218 871 271 838 l 180 794 q 271 662 271 754 l 271 559 z "},"០":{"ha":949,"x_min":170,"x_max":780,"o":"m 678 610 q 627 840 678 763 q 475 916 576 916 q 322 840 373 916 q 271 610 271 763 l 271 407 q 322 178 271 254 q 475 102 373 102 q 627 178 576 102 q 678 407 678 254 l 678 610 m 780 407 q 704 102 780 203 q 475 0 627 0 q 245 102 322 0 q 170 407 170 203 l 170 610 q 245 916 170 814 q 475 1017 322 1017 q 704 916 627 1017 q 780 610 780 814 l 780 407 z "},"១":{"ha":949,"x_min":170,"x_max":780,"o":"m 755 343 q 475 0 627 0 q 414 51 414 0 q 475 102 414 102 q 600 239 531 102 l 661 366 q 678 475 678 408 l 678 669 q 646 730 678 699 l 475 883 l 304 731 q 271 671 271 707 l 271 495 q 283 449 271 468 l 389 351 l 454 434 q 475 509 475 468 q 525 577 475 577 l 526 577 q 576 509 576 576 q 522 369 576 442 l 437 252 q 394 227 418 227 q 340 252 370 227 l 228 354 q 170 495 170 408 l 170 671 q 246 814 170 746 l 475 1017 l 704 814 q 780 665 780 746 l 780 475 q 755 343 780 407 z "},"២":{"ha":1069,"x_min":91,"x_max":899,"o":"m 899 373 l 899 170 q 730 0 899 0 q 336 52 506 0 q 316 55 326 55 q 269 0 277 55 l 167 0 l 183 136 q 197 368 197 247 q 98 1085 197 691 l 94 1101 q 91 1123 91 1114 q 139 1153 91 1153 q 194 1119 187 1153 l 201 1085 q 298 397 298 698 q 282 170 298 276 q 730 102 506 102 q 798 170 798 102 l 798 373 q 747 441 798 441 q 696 373 696 441 l 696 271 q 628 237 696 237 q 594 271 594 237 l 594 373 q 543 441 594 441 q 492 373 492 441 l 492 305 q 519 271 519 305 q 494 239 519 239 l 492 239 q 391 307 391 239 l 391 374 q 542 543 391 543 l 543 543 q 645 475 611 543 q 747 543 679 543 q 899 373 899 543 z "},"៣":{"ha":1119,"x_min":170,"x_max":949,"o":"m 882 0 l 814 0 q 797 9 797 0 q 814 34 797 17 l 848 68 l 848 746 q 831 784 848 766 l 780 836 l 712 905 l 610 780 l 610 0 l 509 0 l 509 780 l 373 905 l 290 817 q 271 746 271 793 l 271 271 l 305 271 q 407 136 407 271 q 305 0 407 0 q 170 136 170 0 l 170 746 q 209 865 170 814 l 373 1017 l 562 852 l 712 1017 l 876 865 q 949 746 949 807 l 949 68 l 882 0 m 305 203 q 271 148 274 203 l 271 136 q 305 68 271 68 q 339 136 339 68 q 305 203 339 203 z "},"៤":{"ha":916,"x_min":153,"x_max":746,"o":"m 678 339 q 641 262 641 307 q 730 94 641 193 l 746 68 l 746 0 l 644 0 q 529 14 597 14 q 373 0 461 14 l 368 0 q 170 170 170 0 q 235 425 170 239 q 256 570 256 484 q 159 1083 256 760 l 155 1099 q 153 1118 153 1109 q 195 1153 153 1153 q 255 1117 248 1153 l 262 1083 q 358 572 358 761 q 337 425 358 484 q 271 170 271 239 q 373 102 271 102 q 521 115 461 115 q 610 102 580 115 q 536 252 536 160 q 576 407 536 321 q 678 475 610 475 q 746 407 746 475 q 678 339 746 339 z "},"៥":{"ha":949,"x_min":170,"x_max":780,"o":"m 712 339 q 675 262 675 307 q 764 94 675 193 l 780 68 l 780 0 l 678 0 q 555 14 631 14 q 373 0 478 14 q 170 163 170 0 q 235 407 170 205 q 315 610 263 488 l 305 610 q 170 746 170 610 q 305 882 170 882 q 442 746 441 882 q 435 712 442 736 l 576 712 q 678 787 678 712 q 666 872 678 821 q 631 1023 631 962 q 644 1085 631 1059 q 712 1153 678 1153 q 780 1135 780 1153 q 763 1102 780 1119 q 728 1051 746 1085 q 724 1029 724 1043 q 764 888 724 986 q 780 787 780 821 q 576 610 780 610 l 416 610 q 336 407 365 488 q 271 163 271 205 q 373 102 271 102 q 546 115 478 115 q 644 102 614 115 q 570 252 570 160 q 610 407 570 321 q 712 475 644 475 q 780 407 780 475 q 712 339 780 339 m 339 746 q 305 780 339 780 q 271 746 271 780 q 308 712 271 712 l 334 712 q 339 746 339 736 z "},"៦":{"ha":916,"x_min":170,"x_max":746,"o":"m 441 475 q 273 416 286 475 q 271 407 271 412 l 170 407 q 174 441 170 425 q 227 1004 227 859 l 227 1023 q 199 1051 227 1051 q 170 1102 170 1051 q 203 1153 170 1153 q 329 1037 329 1153 q 328 1017 329 1027 l 328 1010 q 286 549 328 882 q 441 576 353 576 q 746 271 746 576 q 441 0 746 0 q 170 170 170 0 q 305 312 170 312 q 359 261 359 312 q 305 210 359 210 q 271 170 271 210 q 441 102 271 102 q 644 271 644 102 q 441 475 644 475 z "},"៧":{"ha":1051,"x_min":170,"x_max":882,"o":"m 712 186 q 699 105 712 143 q 756 145 732 105 q 780 286 780 186 l 780 1071 q 644 1179 780 1179 l 509 1179 q 339 1237 435 1179 q 307 1320 307 1258 q 326 1354 307 1354 q 351 1345 336 1354 q 509 1285 435 1285 l 644 1285 q 882 1071 882 1285 l 882 286 q 857 143 882 214 q 789 36 833 71 q 543 0 746 0 q 610 186 610 143 l 610 698 q 589 814 610 755 l 556 863 l 441 734 l 326 863 l 289 812 q 271 698 271 762 l 271 214 q 305 119 271 150 q 365 214 349 157 q 305 286 305 218 q 376 357 305 357 q 475 286 475 357 q 387 36 475 143 q 305 0 357 0 q 259 36 289 0 l 170 143 l 170 698 q 209 857 170 803 l 326 1017 l 441 874 l 556 1017 l 673 857 q 712 698 712 803 l 712 186 z "},"៨":{"ha":1051,"x_min":170,"x_max":949,"o":"m 882 271 q 712 0 882 0 q 552 121 644 0 q 393 0 495 0 q 252 95 307 0 q 170 339 197 190 q 441 610 237 515 l 646 610 q 780 712 780 610 l 780 983 q 916 1153 780 1153 q 949 1102 949 1153 q 916 1051 949 1051 q 882 983 882 1051 l 882 712 q 644 509 882 509 l 441 509 q 271 339 339 448 q 329 153 298 203 q 393 102 359 102 q 549 285 441 102 q 712 102 644 102 q 780 271 780 102 q 746 305 780 305 q 712 356 712 305 q 780 407 712 407 q 882 271 882 407 z "},"៩":{"ha":1051,"x_min":170,"x_max":895,"o":"m 481 244 q 583 136 583 244 q 373 0 570 0 q 170 271 171 0 q 441 488 170 475 q 428 568 428 531 q 488 699 428 648 q 589 732 529 732 q 760 685 661 732 q 712 970 712 827 q 848 1153 712 1153 q 895 1102 895 1153 q 848 1051 895 1051 q 814 970 814 1051 q 868 685 814 827 q 882 628 882 652 q 861 583 882 598 q 820 570 842 570 q 772 583 798 570 q 606 641 667 641 q 563 631 581 641 q 531 574 531 613 q 559 481 531 537 l 796 300 q 814 267 814 286 q 798 229 814 250 q 757 201 776 201 q 738 209 747 201 q 441 387 570 366 q 393 391 415 391 q 271 271 277 391 q 373 102 271 102 q 481 136 468 102 q 414 190 414 136 q 481 244 414 244 z "},"​":{"ha":0,"x_min":0,"x_max":0,"o":""}}}
